<?xml version="1.0" encoding="utf-8"?>
<!-- Generator: Adobe Illustrator 24.0.2, SVG Export Plug-In . SVG Version: 6.00 Build 0)  -->
<svg version="1.1" id="Lager_1" xmlns="http://www.w3.org/2000/svg" xmlns:xlink="http://www.w3.org/1999/xlink" x="0px" y="0px"
	 viewBox="0 0 1318.8 1229.4" style="enable-background:new 0 0 1318.8 1229.4;" xml:space="preserve">
<path d="M390.9,650.2c2.8,4.2,4.2,8.8,4.2,13.7c0,5.4-1.8,10.7-5.3,15.8c-2.1,3.3-5.2,5.9-9.1,7.7c-4,1.9-8,2.8-11.9,2.8
	c-3.5,0-6.3-0.7-8.4-2.1c0.9-2.8,1.4-4.9,1.4-6.3c0-3.3-1-6.6-3-9.8c-2-3.3-4.6-5.8-7.9-7.7c-3.8-2.3-7.4-3.5-10.9-3.5
	c-9.4,0-12.6,8.8-20.6,26.3v100.6c0,4.5,1.3,8.4,4,11.8c2.7,3.4,6.3,5.6,10.7,6.5l10.5,2.1v8.6h-87.8V808l10.5-2.1
	c4.4-0.9,8-3.1,10.7-6.5c2.7-3.4,4-7.3,4-11.8V662.4c0-4.4-0.8-8.9-4-11.8c-2.1-1.9-6.3-2.9-10.7-3.8l-10.5-2.1v-8.6h62.5v37.2
	c5.4-11.7,10.3-23.7,19.5-30.8c9.2-7.1,15.5-8.2,24.6-8.2c6.3,0,12.1,1.8,17.2,5.3C384.7,642.5,388.1,646,390.9,650.2z"/>
<path d="M578.6,636.1v8.6l-13.7,4.2c-4.5,1.4-8.8,2-13,7.3c-4.2,5.3-8,12.1-11.2,20.5l-53,169.7c-8,21.5-17.2,39.6-27.7,54.1
	c-10.5,14.5-24,21.8-40.4,21.8c-9.4,0-17.4-2.9-24.1-8.6c-6.7-5.7-10-13.8-10-24.1c0-9.4,3-16.5,9-21.2c6-4.8,12.2-7.2,18.8-7.2
	c1.4,0,3,0.2,4.9,0.7c-0.2,1.2-0.4,2.8-0.4,4.9c0,5.1,1.4,9.5,4.2,13.2c2.8,3.6,7.3,5.4,13.3,5.4c9.8,0,19-6,27.4-18.1
	c8.4-12.1,12.5-25,17.7-38.8c1.4-3.7,2.1-7.4,2.1-10.9c0-4-0.9-8.2-2.8-12.6l-41.3-130.7c-4.2-8.7-9.6-15.8-16.2-21.4
	c-6.6-5.6-13.9-6.5-22.1-8.2v-8.6h87.8v8.6c-4.5,0.9-8,0.4-10.5,3.8c-2.6,3.4-3.9,7.4-3.9,12.1c0,3.7,0.8,7.4,2.5,10.9l26.9,100.8
	l28.7-101.6c1.2-3,1.8-5.6,1.8-7.7c0-4.2-1.3-8.1-3.9-11.6c-2.6-3.5-6.1-4.9-10.6-5.9c-1.7-0.4-6.9-0.9-6.9-0.9v-8.6H578.6z"/>
<path d="M700.3,636.1v10.5h-43.1v123.9c0,12.2,2.3,24.2,3.8,29.3c0.8,2.5,4.4,11.3,13.1,11.5c9.4,0.2,13.8-2.5,18.7-7.6
	c4.9-5,8-13,9.1-24.1h13.3c-0.9,12.9-5.8,23.1-14.6,30.7c-8.8,7.6-17.3,11.4-30.8,11.4c-18.3,0-25.6-6.2-33.3-13.2
	c-10.5-9.5-16.7-20.2-16.7-34.2V646.7h-27.7v-10.5c10.5,0,20.2-2.6,29-7.9c8.8-5.3,12.3-8.9,15.8-19c3.8-11.1,5.1-22.7,5.1-34.2
	h15.1v61.1H700.3z"/>
<path d="M1010.1,808v8.6h-81.9V808l8.4-2.1c4-1.2,7.3-3.3,9.9-6.5c2.6-3.2,3.9-7,3.9-11.4V683.6c0-14.5-2.5-25.8-7.5-33.7
	c-5-8-12-11.9-21-11.9c-5.6,0-11.4,2.1-17.4,6.1c-6,4.1-11.1,9.6-15.1,16.5c-4,6.9-6,14.6-6,23V788c0,4.5,1.3,8.3,3.9,11.4
	c2.6,3.2,5.9,5.3,9.9,6.5l8.4,2.1v8.6h-79.8V808l8.4-2.1c4-1.2,7.3-3.3,9.9-6.5c2.6-3.2,3.9-7,3.9-11.4V683.6
	c0-14.5-2.5-25.8-7.5-33.7c-5-8-12-11.9-21-11.9c-5.8,0-11.7,1.9-17.6,5.6c-5.9,3.7-10.9,8.8-14.9,15.3c-4,6.4-6,13.5-6,21.2v108
	c0,4.5,1.3,8.3,3.9,11.4c2.6,3.2,5.9,5.3,9.9,6.5l8.4,2.1v8.6h-81.9V808l10.1-2.1c4.2-0.9,7.7-3.1,10.2-6.5
	c2.6-3.4,3.9-7.3,3.9-11.8V665.1c0-4.4-1.3-8.4-3.9-11.8c-2.6-3.4-6-5.6-10.2-6.5l-10.1-2.1v-8.6h59.7v16.5
	c6.5-7.7,13.2-13.9,20.1-18.4c6.9-4.6,15.1-6.8,24.5-6.8c11,0,21.2,3.1,30.9,9.3c9.6,6.2,16.9,13.9,21.8,23
	c6.3-9.8,13.4-17.7,21.5-23.5c8.1-5.8,17.6-8.8,28.5-8.8c11,0,20.9,2.5,29.7,7.6c8.8,5,15.8,11.8,20.8,20.4c5,8.5,7.6,18,7.6,28.3
	v104.1c0,4.5,1.3,8.4,3.9,11.8c2.6,3.4,6,5.6,10.2,6.5L1010.1,808z"/>
<path d="M675.6,515.5c2.7,3.4,6.3,5.6,10.7,6.5l10.5,2.1v8.6h-62.5v-16.5c-5.6,7-13.7,12.9-24.2,17.6c-5.9,2.8-13.3,4.2-22.5,4.2
	c-9.6,0-18.9-2.1-27.9-6.1c-9-4.1-16.9-9.7-23.7-16.7c-15.9-17.3-23.7-47.7-23.7-72.5c0-26.2,7.9-57,24-73.2
	c7.3-7,15.7-12.5,25.3-16.5c9.6-4,19.7-6,30.2-6c8.2,0,16.3,1.3,24.2,4c8,2.7,14,6.1,18.3,10.4v-64.5c0-4.4-1.3-8.4-4-11.8
	c-2.7-3.4-6.3-5.6-10.7-6.5l-10.5-2.1V268h62.5v235.8C671.6,508.2,672.9,512.1,675.6,515.5z M573.3,376.8c-8.7,12.2-13,39-13,64.3
	c0,24.1,4.2,53.7,12.6,67c6.8,10.5,14.8,15.8,23.9,15.8c7.5,0,14.6-2.9,21.4-8.6c6.8-5.7,11.9-12.5,15.5-20.2V380.3
	c-4-6.1-8.8-10.8-14.4-14.2c-5.6-3.4-11.8-5.1-18.6-5.1C590.1,361,581,366.3,573.3,376.8z"/>
<path d="M722.7,522c4.4-0.9,8-3.1,10.7-6.5c2.7-3.4,4-7.3,4-11.8V381.2c0-4.4-1.3-8.4-4-11.8c-2.7-3.4-6.3-5.6-10.7-6.5l-10.5-2.1
	v-8.6h62.5v151.5c0,4.5,1.3,8.4,4,11.8c2.7,3.4,6.3,5.6,10.7,6.5l10.5,2.1v8.6h-87.8v-8.6L722.7,522z M768.5,311.9
	c-3.6,3.9-8.5,5.8-14.6,5.8c-6.1,0-10.9-1.9-14.6-5.8c-3.6-3.9-5.4-8.4-5.4-13.5c0-5.1,1.8-9.7,5.4-13.5c3.6-3.9,8.5-5.8,14.6-5.8
	c6.1,0,10.9,1.9,14.6,5.8c3.6,3.9,5.4,8.4,5.4,13.5C774,303.5,772.2,308,768.5,311.9z"/>
<path d="M999.7,524.1v8.6h-81.3v-8.6l8.3-2.1c4-1.2,7.3-3.3,9.8-6.5c2.6-3.2,3.8-7,3.8-11.4V399.7c0-14-2.6-24.6-7.7-31.6
	c-5.1-7-12-10.5-20.7-10.5c-5.6,0-11.3,1.8-17.3,5.3c-6,3.5-11,8-15,13.5c-4,5.5-6,10.9-6,16.3v111.5c0,4.5,1.3,8.3,3.8,11.4
	c2.6,3.2,5.8,5.3,9.8,6.5l8.3,2.1v8.6h-81.3v-8.6l10-2.1c4.2-0.9,7.6-3.1,10.2-6.5c2.6-3.4,3.8-7.3,3.8-11.8V381.2
	c0-4.4-1.3-8.4-3.8-11.8c-2.6-3.4-5.9-5.6-10.2-6.5l-10-2.1v-8.6h59.3v16.5c4.9-6.6,11.4-11.8,19.5-15.8c8.1-4,16.4-6,24.8-6
	c16.7,0,30.4,4.9,41.3,14.6c10.9,9.7,16.3,22.4,16.3,38.1v104.1c0,4.5,1.3,8.4,3.8,11.8c2.6,3.4,5.9,5.6,10.2,6.5L999.7,524.1z"/>
</svg>
